HIERARCHY
ROOT Hips
{
 OFFSET 0.000000 0.000000 0.000000
 CHANNELS 6 Xposition Yposition Zposition Yrotation Xrotation Zrotation
 JOINT Chest
 {
  OFFSET 0.000000 9.588913 -0.003946
  CHANNELS 3 Yrotation Xrotation Zrotation
  JOINT Chest2
  {
   OFFSET 0.000000 9.541882 0.008053
   CHANNELS 3 Yrotation Xrotation Zrotation
   JOINT Chest3
   {
    OFFSET 0.000000 9.501360 0.000000
    CHANNELS 3 Yrotation Xrotation Zrotation
    JOINT Chest4
    {
     OFFSET 0.000000 9.491660 0.000000
     CHANNELS 3 Yrotation Xrotation Zrotation
     JOINT Neck
     {
      OFFSET 0.000000 14.331917 0.000000
      CHANNELS 3 Yrotation Xrotation Zrotation
      JOINT Head
      {
       OFFSET 0.000000 8.884799 0.017034
       CHANNELS 3 Yrotation Xrotation Zrotation
       End Site
       {
        OFFSET 0.000000 16.896195 0.008993
       }
      }
     }
     JOINT RightCollar
     {
      OFFSET -2.923010 9.499495 0.000000
      CHANNELS 3 Yrotation Xrotation Zrotation
      JOINT RightShoulder
      {
       OFFSET -13.795216 0.000000 0.000000
       CHANNELS 3 Yrotation Xrotation Zrotation
       JOINT RightElbow
       {
        OFFSET -30.272209 0.000000 0.000000
        CHANNELS 3 Yrotation Xrotation Zrotation
        JOINT RightWrist
        {
         OFFSET -24.478199 0.000000 0.000000
         CHANNELS 3 Yrotation Xrotation Zrotation
         End Site
         {
          OFFSET -18.090752 0.000000 0.000000
         }
        }
       }
      }
     }
     JOINT LeftCollar
     {
      OFFSET 2.923010 9.499495 0.000000
      CHANNELS 3 Yrotation Xrotation Zrotation
      JOINT LeftShoulder
      {
       OFFSET 13.795216 0.000000 0.000000
       CHANNELS 3 Yrotation Xrotation Zrotation
       JOINT LeftElbow
       {
        OFFSET 30.272209 0.000000 0.000000
        CHANNELS 3 Yrotation Xrotation Zrotation
        JOINT LeftWrist
        {
         OFFSET 24.478199 0.000000 0.000000
         CHANNELS 3 Yrotation Xrotation Zrotation
         End Site
         {
          OFFSET 18.090752 0.000000 0.000000
         }
        }
       }
      }
     }
    }
   }
  }
 }
 JOINT RightHip
 {
  OFFSET -7.826875 0.019532 0.001973
  CHANNELS 3 Yrotation Xrotation Zrotation
  JOINT RightKnee
  {
   OFFSET 0.000000 -40.546152 -0.001885
   CHANNELS 3 Yrotation Xrotation Zrotation
   JOINT RightAnkle
   {
    OFFSET 0.000000 -39.417092 -0.003189
    CHANNELS 3 Yrotation Xrotation Zrotation
    JOINT RightToe
    {
     OFFSET 0.000000 -7.579396 17.243563
     CHANNELS 3 Yrotation Xrotation Zrotation
     End Site
     {
      OFFSET 0.000000 -1.500329 6.694466
     }
    }
   }
  }
 }
 JOINT LeftHip
 {
  OFFSET 7.826875 0.019532 0.001973
  CHANNELS 3 Yrotation Xrotation Zrotation
  JOINT LeftKnee
  {
   OFFSET 0.000000 -40.546152 -0.001885
   CHANNELS 3 Yrotation Xrotation Zrotation
   JOINT LeftAnkle
   {
    OFFSET 0.000000 -39.417092 -0.003189
    CHANNELS 3 Yrotation Xrotation Zrotation
    JOINT LeftToe
    {
     OFFSET 0.000000 -7.579396 17.243563
     CHANNELS 3 Yrotation Xrotation Zrotation
     End Site
     {
      OFFSET 0.000000 -1.500329 6.694466
     }
    }
   }
  }
 }
}
MOTION
Frames: 14
Frame Time: 0.008333
123.912280 86.406055 -90.608992 129.756465 -5.354629 -2.629188 5.644154 4.566196 -1.316189 3.245969 2.623512 -0.577033 4.054380 3.284166 -0.698153 3.245965 2.623524 -0.577035 3.802709 18.789239 3.624534 3.232166 -5.793103 3.001057 6.838149 -0.350720 -1.194143 -5.876578 4.329047 79.121109 7.124132 4.779692 2.136948 -0.053833 -3.263600 4.147447 10.173822 2.996807 6.141846 21.430244 3.541245 -75.633956 -6.106678 8.607849 1.384558 -0.187213 2.318219 -4.683840 -6.578257 23.750236 -17.729663 -1.255326 3.210729 0.465256 2.147719 -6.902390 22.037771 0.175394 -5.825444 -2.053911 -3.684962 -5.280319 13.720831 2.281237 11.283255 1.238614 6.586832 -5.021461 -10.136802 0.191869 0.210440 -0.033801
124.228054 86.561642 -91.086054 129.724019 -5.354338 -2.823096 5.504172 4.528788 -1.223006 3.156145 2.605981 -0.523920 3.942465 3.261676 -0.632547 3.156141 2.605994 -0.523921 3.829549 18.776983 3.570179 3.272908 -5.807477 2.936496 6.792122 -0.121542 -1.258246 -6.072497 4.432000 79.378226 7.174271 4.672816 2.152890 0.017821 -3.346261 4.097042 9.992295 2.711608 6.017751 20.687644 3.230820 -75.746680 -6.230309 7.968422 1.104480 -0.354300 2.114123 -4.665646 -7.037938 23.582100 -17.745247 -1.608150 2.619456 0.405537 2.196256 -7.353537 21.732936 0.171606 -3.664327 -1.212119 -3.482553 -4.885210 13.753080 2.289221 11.203096 1.261097 6.461104 -5.147379 -10.014037 0.174212 0.181229 -0.040838
124.534695 86.710728 -91.558108 129.627755 -5.360378 -2.999346 5.371555 4.495197 -1.127175 3.073278 2.588794 -0.471531 3.839239 3.239655 -0.567784 3.073275 2.588808 -0.471531 3.863807 18.769458 3.518010 3.321238 -5.816212 2.872742 6.767564 0.117559 -1.333078 -6.323253 4.552657 79.624608 7.273757 4.558684 2.172220 0.156074 -3.444097 3.994571 9.794240 2.384296 5.827594 19.899437 2.893703 -75.800698 -6.305172 7.339442 0.910640 -0.415227 2.023486 -4.698048 -7.380370 23.316528 -17.750946 -1.935196 2.163783 0.345811 2.047339 -7.744412 21.641909 0.176029 -1.983384 -0.671815 -3.237381 -4.490128 13.773461 2.283441 11.133397 1.283884 6.368649 -5.270946 -9.896515 0.157200 0.137154 -0.046359
124.831432 86.851026 -92.024131 129.478748 -5.364563 -3.158259 5.239174 4.466325 -1.027008 2.995041 2.571043 -0.421348 3.741781 3.216975 -0.505743 2.995038 2.571059 -0.421347 3.907480 18.760141 3.468484 3.379148 -5.826498 2.809780 6.760479 0.363398 -1.418340 -6.611387 4.676759 79.856285 7.397821 4.456008 2.196978 0.359406 -3.557186 3.854405 9.586571 2.028407 5.592959 19.084182 2.529529 -75.819222 -6.366241 6.776140 0.799883 -0.363886 2.046766 -4.767369 -7.580002 22.952012 -17.739310 -2.208665 1.849751 0.290953 1.692670 -8.063554 21.683815 0.169959 -0.698403 -0.325762 -2.982214 -4.103671 13.784807 2.266046 11.082487 1.301045 6.327490 -5.398380 -9.785790 0.142221 0.084996 -0.048746
125.119117 86.980799 -92.483263 129.296482 -5.362533 -3.300572 5.097743 4.443551 -0.920869 2.916888 2.552147 -0.374383 3.644401 3.192910 -0.447727 2.916884 2.552165 -0.374381 3.963252 18.744933 3.419577 3.449947 -5.842851 2.744798 6.763947 0.619374 -1.516428 -6.901677 4.786546 80.070786 7.518815 4.365281 2.230752 0.614817 -3.678852 3.695510 9.378663 1.669618 5.348172 18.274204 2.146853 -75.838353 -6.453616 6.329482 0.760761 -0.222053 2.158472 -4.857334 -7.648501 22.498342 -17.715549 -2.415663 1.658713 0.246002 1.177391 -8.294975 21.761952 0.149148 0.259934 -0.076752 -2.739109 -3.730733 13.788135 2.242647 11.051193 1.309608 6.336050 -5.532573 -9.684322 0.131377 0.031521 -0.045234
125.399396 87.098959 -92.935297 129.110015 -5.352319 -3.423012 4.936448 4.428013 -0.810011 2.832528 2.532158 -0.332081 3.539225 3.167530 -0.395583 2.832525 2.532179 -0.332078 4.032338 18.723378 3.368498 3.535573 -5.865776 2.674528 6.765784 0.886564 -1.625722 -7.143314 4.869815 80.267297 7.616362 4.265991 2.271098 0.899455 -3.800086 3.539249 9.172143 1.338419 5.121339 17.512594 1.725983 -75.880671 -6.571801 6.027313 0.764615 -0.026589 2.326905 -4.944754 -7.642287 21.969176 -17.701847 -2.554493 1.555517 0.212661 0.593000 -8.422132 21.786775 0.118030 0.947735 0.151085 -2.532738 -3.374390 13.776219 2.218661 11.038473 1.314893 6.381757 -5.672308 -9.596244 0.125984 -0.020119 -0.035471
125.675876 87.205280 -93.379328 128.950741 -5.336589 -3.529564 4.746839 4.420303 -0.688735 2.736062 2.512140 -0.295831 3.418868 3.142171 -0.351079 2.736059 2.512165 -0.295826 4.112427 18.698730 3.314812 3.633692 -5.891695 2.599043 6.754562 1.155812 -1.735523 -7.307199 4.923668 80.442793 7.672630 4.149779 2.309578 1.182375 -3.912084 3.407040 8.952121 1.053351 4.913831 16.845039 1.235312 -75.935356 -6.703239 5.884246 0.776832 0.182810 2.520214 -5.004621 -7.623210 21.385174 -17.713026 -2.638850 1.503310 0.194501 0.043353 -8.440192 21.687481 0.081570 1.417739 0.405384 -2.387024 -3.028045 13.753065 2.202512 11.028575 1.317637 6.440956 -5.778046 -9.513682 0.119308 -0.096864 -0.027608
125.949793 87.299974 -93.817457 128.835022 -5.319176 -3.598102 4.526707 4.418385 -0.579699 2.624024 2.493618 -0.265591 3.278997 3.118733 -0.314173 2.624022 2.493647 -0.265584 4.200437 18.676514 3.259839 3.740773 -5.914495 2.520488 6.728963 1.415169 -1.833335 -7.409151 4.953635 80.593173 7.685589 4.032617 2.337886 1.429651 -3.994302 3.310205 8.705207 0.809766 4.709680 16.287677 0.671059 -75.972011 -6.832656 5.898377 0.772690 0.369088 2.703640 -5.022774 -7.631172 20.759522 -17.783588 -2.684978 1.479186 0.195264 -0.404902 -8.332098 21.424852 0.052894 1.699889 0.706937 -2.304846 -2.696879 13.691398 2.210654 11.045533 1.321850 6.488882 -5.926424 -9.428107 0.118461 -0.141211 -0.025969
126.225945 87.384205 -94.248528 128.771596 -5.310728 -3.634506 4.277525 4.422222 -0.478245 2.494810 2.478587 -0.241404 3.117608 3.099708 -0.284918 2.494809 2.478618 -0.241397 4.295611 18.661418 3.206752 3.855383 -5.928890 2.442478 6.689921 1.657187 -1.914311 -7.468740 4.973126 80.719849 7.666771 3.936372 2.350806 1.604769 -4.040473 3.251577 8.435465 0.589185 4.508000 15.806951 0.060038 -75.974595 -6.949765 6.028778 0.737901 0.499622 2.845931 -4.994382 -7.674813 20.116541 -17.903126 -2.702920 1.466682 0.211567 -0.732098 -8.121822 21.001608 0.031553 1.849996 1.042513 -2.276621 -2.368301 13.595239 2.251390 11.074148 1.333146 6.506670 -6.075617 -9.330533 0.117957 -0.184529 -0.037072
126.507151 87.459381 -94.673027 128.755831 -5.322627 -3.630509 4.004804 4.432049 -0.391833 2.349829 2.469751 -0.223255 2.936464 3.088473 -0.263266 2.349829 2.469783 -0.223246 4.395405 18.655972 3.156766 3.974549 -5.932119 2.366893 6.635341 1.881079 -1.984553 -7.496277 4.991864 80.828245 7.629116 3.873145 2.347814 1.682950 -4.057184 3.227936 8.144193 0.389685 4.316561 15.351810 -0.582198 -75.944948 -7.045800 6.212321 0.664652 0.556951 2.937452 -4.919580 -7.744805 19.479245 -18.073068 -2.691905 1.448189 0.239176 -0.956953 -7.826979 20.452618 0.016200 1.911628 1.381076 -2.283126 -2.028166 13.454967 2.317124 11.105356 1.355003 6.490494 -6.219254 -9.220974 0.116147 -0.230655 -0.059857
126.796635 87.527218 -95.089795 128.782283 -5.365340 -3.590918 3.712937 4.451030 -0.317694 2.191835 2.468551 -0.209914 2.739016 3.086819 -0.247661 2.191837 2.468585 -0.209905 4.492971 18.660765 3.108284 4.091213 -5.923835 2.293506 6.565147 2.094208 -2.052009 -7.520620 5.013690 80.926022 7.588054 3.859234 2.332183 1.665780 -4.044967 3.227914 7.829957 0.221467 4.138267 14.877994 -1.260265 -75.887728 -7.109680 6.401165 0.551756 0.538358 2.973829 -4.807255 -7.821782 18.866087 -18.282769 -2.639721 1.415963 0.279875 -1.118936 -7.468981 19.825519 -0.001032 1.923426 1.685685 -2.313667 -1.659404 13.278852 2.396198 11.127759 1.382404 6.451055 -6.353115 -9.103538 0.110998 -0.279991 -0.089008
127.096362 87.589373 -95.496094 128.848107 -5.440279 -3.528764 3.405872 4.479262 -0.251087 2.022720 2.475044 -0.198877 2.527648 3.094798 -0.234968 2.022723 2.475079 -0.198868 4.582501 18.672452 3.059859 4.199334 -5.908044 2.221999 6.478461 2.305938 -2.124008 -7.571440 5.037230 81.022143 7.556322 3.917243 2.311388 1.572480 -4.020739 3.232914 7.505928 0.072504 3.972434 14.348417 -1.961154 -75.802210 -7.133563 6.573268 0.408735 0.455222 2.944764 -4.677118 -7.891041 18.282616 -18.513077 -2.540889 1.368685 0.337028 -1.260235 -7.077568 19.171924 -0.022368 1.924764 1.922428 -2.363058 -1.257487 13.085904 2.479080 11.135680 1.406901 6.398834 -6.475818 -8.984070 0.102273 -0.331722 -0.117908
127.404810 87.647038 -95.889280 128.944030 -5.535209 -3.448997 3.088030 4.510575 -0.192982 1.844600 2.487198 -0.187914 2.305019 3.109860 -0.222406 1.844604 2.487235 -0.187906 4.662337 18.686567 3.009163 4.297550 -5.889859 2.150189 6.377648 2.524938 -2.208891 -7.658053 5.057565 81.123680 7.533220 4.037873 2.294240 1.429012 -3.995153 3.231654 7.192714 -0.079258 3.814815 13.727730 -2.666192 -75.681396 -7.113272 6.716842 0.248750 0.332915 2.870925 -4.560918 -7.942158 17.710386 -18.750782 -2.409480 1.316473 0.406074 -1.404191 -6.696643 18.552610 -0.042453 1.952895 2.061063 -2.417274 -0.835464 12.887114 2.555052 11.125271 1.419739 6.339937 -6.583794 -8.864798 0.090957 -0.386524 -0.142352
127.719054 87.701067 -96.268284 129.057181 -5.638400 -3.349571 2.764269 4.537502 -0.147660 1.659136 2.503200 -0.175506 2.073217 3.129730 -0.208082 1.659140 2.503238 -0.175498 4.734107 18.701712 2.952732 4.388360 -5.870849 2.073983 6.275519 2.754438 -2.310972 -7.798531 5.068649 81.236955 7.510789 4.198021 2.281090 1.274172 -3.962387 3.225402 6.906661 -0.242153 3.666180 12.990598 -3.366558 -75.527445 -7.055958 6.827744 0.085329 0.209773 2.799201 -4.493072 -7.971736 17.128495 -18.988207 -2.284927 1.269577 0.469455 -1.539240 -6.371554 18.034984 -0.052294 2.031496 2.078485 -2.461408 -0.405068 12.684222 2.619263 11.091994 1.419583 6.267590 -6.672936 -8.749609 0.076344 -0.446918 -0.160266
